<svg xmlns="http://www.w3.org/2000/svg" xmlns:xlink="http://www.w3.org/1999/xlink" class="svg-icon2 plant" x="0" y="0" viewBox="0 0 513.063 513.063" style="enable-background:new 0 0 512 512" xml:space="preserve"><g><g xmlns="http://www.w3.org/2000/svg" id="XMLID_779_"><g id="XMLID_484_"><path id="XMLID_581_" d="m418.532 205.063h-191.127c8.838-10.159 14.208-23.411 14.208-37.902 0-31.889-25.943-57.832-57.832-57.832s-57.832 25.943-57.832 57.832c0 14.491 5.37 27.743 14.207 37.902h-45.624c-27.57 0-50 22.43-50 50v58.999c0 5.523 4.477 10 10 10s10-4.477 10-10v-58.999c0-16.542 13.458-30 30-30h280c16.542 0 30 13.458 30 30v54h-104c-27.57 0-50 22.43-50 50s22.43 50 50 50h104v54c0 16.542-13.458 30-30 30h-280c-16.542 0-30-13.458-30-30v-59.078c0-5.523-4.477-10-10-10s-10 4.477-10 10v59.078c0 27.57 22.43 50 50 50h324c27.57 0 50-22.43 50-50v-208c0-27.57-22.43-50-50-50zm-234.751-75.733c20.861 0 37.832 16.971 37.832 37.832s-16.971 37.832-37.832 37.832c-20.86 0-37.832-16.971-37.832-37.832s16.971-37.832 37.832-37.832zm230.724 95.733h4.027c16.542 0 30 13.458 30 30v54h-24v-54c0-11.247-3.735-21.637-10.027-30zm-143.973 134c0-16.542 13.458-30 30-30h148v60h-148c-16.542 0-30-13.458-30-30zm148 134h-4.027c6.292-8.363 10.027-18.752 10.027-30v-54h24v54c0 16.542-13.458 30-30 30z" fill="" data-original="" style=""></path><path id="XMLID_1260_" d="m297.972 349.062c-2.64 0-5.22 1.07-7.08 2.93s-2.92 4.44-2.92 7.07 1.06 5.21 2.92 7.07c1.87 1.86 4.44 2.93 7.08 2.93 2.63 0 5.2-1.07 7.07-2.93 1.86-1.86 2.93-4.44 2.93-7.07s-1.07-5.21-2.93-7.07c-1.86-1.861-4.44-2.93-7.07-2.93z" fill="" data-original="" style=""></path><path id="XMLID_1711_" d="m329.283 137.66c31.889 0 57.832-25.943 57.832-57.832 0-31.888-25.943-57.832-57.832-57.832s-57.832 25.943-57.832 57.832 25.943 57.832 57.832 57.832zm0-95.663c20.86 0 37.832 16.971 37.832 37.832s-16.971 37.832-37.832 37.832-37.832-16.971-37.832-37.832 16.971-37.832 37.832-37.832z" fill="" data-original="" style=""></path><path id="XMLID_1712_" d="m231.613 98.581c5.523 0 10-4.477 10-10v-78.581c0-5.523-4.477-10-10-10s-10 4.477-10 10v78.581c0 5.523 4.477 10 10 10z" fill="" data-original="" style=""></path><path id="XMLID_1757_" d="m183.613 64c5.523 0 10-4.477 10-10v-44c0-5.523-4.477-10-10-10s-10 4.477-10 10v44c0 5.523 4.477 10 10 10z" fill="" data-original="" style=""></path><path id="XMLID_1760_" d="m54.532 369.062c2.63 0 5.21-1.07 7.07-2.93s2.93-4.44 2.93-7.07-1.07-5.21-2.93-7.07-4.43-2.93-7.07-2.93c-2.63 0-5.21 1.07-7.07 2.93s-2.93 4.44-2.93 7.07 1.07 5.21 2.93 7.07 4.439 2.93 7.07 2.93z" fill="" data-original="" style=""></path></g></g></g></svg>