<svg xmlns="http://www.w3.org/2000/svg" xmlns:xlink="http://www.w3.org/1999/xlink" class="svg-icon plant" x="0" y="0" viewBox="0 0 64 64" style="enable-background:new 0 0 512 512" xml:space="preserve"><g><g xmlns="http://www.w3.org/2000/svg" id="Shipping"><path d="M54.416,37.9a3.906,3.906,0,0,0-1.665-1.562,4,4,0,0,0-3.8.1L38.915,42.227A3.978,3.978,0,0,0,37.657,40a4.062,4.062,0,0,0-2.667-1H28.829a1,1,0,0,1-.708-.293l-.244-.244A4.964,4.964,0,0,0,24.345,37H16.66c-.151,0-.3.01-.5.025a5,5,0,0,0-3.039,1.438L10.5,41.086l-.933-.933a1,1,0,0,0-1.414,0L2.494,45.8a1,1,0,0,0,0,1.415l14.139,14.15a1,1,0,0,0,1.415,0l5.66-5.66a1,1,0,0,0,0-1.414l-.793-.793.207-.207A1,1,0,0,1,23.829,53h11.1a4.933,4.933,0,0,0,2.5-.674l15.52-8.96a3.96,3.96,0,0,0,2-3.466A4.018,4.018,0,0,0,54.416,37.9ZM17.34,59.246,4.615,46.511l4.244-4.238L21.586,55ZM51.95,41.634,36.422,50.6a2.941,2.941,0,0,1-1.492.4h-11.1a2.978,2.978,0,0,0-2.122.879l-.207.207L11.914,42.5l2.623-2.623a2.988,2.988,0,0,1,1.807-.86c.11-.009.213-.017.316-.017h7.685a2.979,2.979,0,0,1,2.118.877l.244.244A2.978,2.978,0,0,0,28.829,41H34.99a2.048,2.048,0,0,1,1.344.5,1.962,1.962,0,0,1,.66,1.287,1.9,1.9,0,0,1-.133.92,1.809,1.809,0,0,1-.448.709A1.983,1.983,0,0,1,35,45H28.42a1,1,0,0,0,0,2H35a3.973,3.973,0,0,0,2.827-1.173,3.829,3.829,0,0,0,.781-1.113l11.338-6.546a2.014,2.014,0,0,1,1.914-.04,1.929,1.929,0,0,1,.823.77,2.015,2.015,0,0,1,.267,1A1.983,1.983,0,0,1,51.95,41.634Z" fill="" data-original="" style=""></path><path d="M15,34H51a1,1,0,0,0,1-1V3a1,1,0,0,0-1-1H15a1,1,0,0,0-1,1V33A1,1,0,0,0,15,34ZM35,4v8H31V4ZM16,4H29v9a1,1,0,0,0,1,1h6a1,1,0,0,0,1-1V4H50V32H16Z" fill="" data-original="" style=""></path><path d="M25,28H19a1,1,0,0,0,0,2h6a1,1,0,0,0,0-2Z" fill="" data-original="" style=""></path><path d="M25,25H19a1,1,0,0,0,0,2h6a1,1,0,0,0,0-2Z" fill="" data-original="" style=""></path><path d="M29,25H28a1,1,0,0,0,0,2h1a1,1,0,0,0,0-2Z" fill="" data-original="" style=""></path><path d="M25,22H19a1,1,0,0,0,0,2h6a1,1,0,0,0,0-2Z" fill="" data-original="" style=""></path><path d="M29,22H28a1,1,0,0,0,0,2h1a1,1,0,0,0,0-2Z" fill="" data-original="" style=""></path><path d="M29,28H28a1,1,0,0,0,0,2h1a1,1,0,0,0,0-2Z" fill="" data-original="" style=""></path><path d="M47,24H37a1,1,0,0,0-1,1v4a1,1,0,0,0,1,1H47a1,1,0,0,0,1-1V25A1,1,0,0,0,47,24Zm-1,4H38V26h8Z" fill="" data-original="" style=""></path></g></g></svg>